<svg xmlns="http://www.w3.org/2000/svg" viewBox="0 0 72 78.14">
  <defs>
    <style>
      .cls-1{fill:rgba(255,255,255,.92)}
      .cls-2{fill:#969BAB}
      .cls-3{filter:url(#Path_255805)}
      .cls-4{fill:#fff}
    </style>
    <filter id="Path_255805" width="72" height="78.14" x="0" y="0" filterUnits="userSpaceOnUse">
      <feOffset dy="3"/>
      <feGaussianBlur result="blur" stdDeviation="3"/>
      <feFlood flood-opacity=".161"/>
      <feComposite in2="blur" operator="in"/>
      <feComposite in="SourceGraphic"/>
    </filter>
  </defs>
  <g id="Pin" transform="translate(9 6)">
    <g class="cls-3" transform="translate(-9 -6)">
      <path id="Path_255805-2" d="M27 3a24 24 0 0 0-4.72 47.54c1.73.32 4.79 4.57 4.79 4.57s3.29-4.28 4.59-4.56A24 24 0 0 0 27 3m0-3a26.955 26.955 0 0 1 20.83 44.15 27.334 27.334 0 0 1-6.88 5.93 27.613 27.613 0 0 1-8.32 3.34 26.077 26.077 0 0 0-3.18 3.52l-2.46 3.2-2.36-3.27c0-.01-.58-.8-1.34-1.68a9.923 9.923 0 0 0-1.78-1.73 26.554 26.554 0 0 1-15.25-9.11A27.015 27.015 0 0 1 27 0z" class="cls-1" data-name="Path 255805" transform="translate(9 6)"/>
    </g>
    <path id="Path_255804" d="M27 3a23.995 23.995 0 0 1 4.66 47.54c-1.3.28-4.59 4.56-4.59 4.56s-3.06-4.24-4.79-4.57A24 24 0 0 1 27 3z" class="cls-2" data-name="Path 255804"/>
    <path id="Path_255797" d="M17.56 14.24a5.987 5.987 0 0 0-7.8-7.8l1.62 1.62A4.2 4.2 0 0 1 12 8a4 4 0 0 1 4 4 4.457 4.457 0 0 1-.05.63zM12 4a8 8 0 0 1 8 8 7.9 7.9 0 0 1-.95 3.74l1.47 1.47A9.861 9.861 0 0 0 22 12 9.993 9.993 0 0 0 6.79 3.47l1.46 1.46A8.039 8.039 0 0 1 12 4zM3.27 2.5L2 3.77l2.1 2.1a9.994 9.994 0 0 0 2.89 14.78l1-1.73A8.005 8.005 0 0 1 4 12a7.9 7.9 0 0 1 1.53-4.69l1.43 1.44A5.987 5.987 0 0 0 9 17.19l1-1.74a3.942 3.942 0 0 1-1.56-5.24l1.58 1.58L10 12a2.006 2.006 0 0 0 2 2l.21-.02.01.01 7.51 7.51L21 20.23 4.27 3.5z" class="cls-4" data-name="Path 255797" transform="translate(15 15)"/>
  </g>
</svg>
