<svg xmlns="http://www.w3.org/2000/svg" viewBox="0 0 72 78.14">
  <defs>
    <style>
      .cls-1{fill:rgba(255,255,255,.92)}
      .cls-2{fill:#ea4b4b}
      .cls-3{filter:url(#Path_255805)}
      .cls-4{fill:#ffffff}
    </style>
    <filter id="Path_255805" width="72" height="78.14" x="0" y="0" filterUnits="userSpaceOnUse">
      <feOffset dy="3"/>
      <feGaussianBlur result="blur" stdDeviation="3"/>
      <feFlood flood-opacity=".161"/>
      <feComposite in2="blur" operator="in"/>
      <feComposite in="SourceGraphic"/>
    </filter>
  </defs>
  <g id="Pin" transform="translate(9 6)">
    <g class="cls-3" transform="translate(-9 -6)">
      <path id="Path_255805-2" d="M27 3a24 24 0 0 0-4.72 47.54c1.73.32 4.79 4.57 4.79 4.57s3.29-4.28 4.59-4.56A24 24 0 0 0 27 3m0-3a26.955 26.955 0 0 1 20.83 44.15 27.334 27.334 0 0 1-6.88 5.93 27.613 27.613 0 0 1-8.32 3.34 26.077 26.077 0 0 0-3.18 3.52l-2.46 3.2-2.36-3.27c0-.01-.58-.8-1.34-1.68a9.923 9.923 0 0 0-1.78-1.73 26.554 26.554 0 0 1-15.25-9.11A27.015 27.015 0 0 1 27 0z" class="cls-1" data-name="Path 255805" transform="translate(9 6)"/>
    </g>
    <path id="Path_255804" d="M27 3a23.995 23.995 0 0 1 4.66 47.54c-1.3.28-4.59 4.56-4.59 4.56s-3.06-4.24-4.79-4.57A24 24 0 0 1 27 3z" class="cls-2" data-name="Path 255804"/>
    <path id="Path_255769" d="M21.661 20.731l1.92-1.92-6.507-6.511-4.387 4.387a1.328 1.328 0 0 1-1.88 0l-8-8.013A1.329 1.329 0 0 1 4.688 6.8l7.053 7.067 4.387-4.387a1.328 1.328 0 0 1 1.88 0l7.453 7.44 1.92-1.92a.666.666 0 0 1 1.133.467v5.72a.66.66 0 0 1-.667.667h-5.72a.655.655 0 0 1-.467-1.12z" class="cls-4" data-name="Path 255769" transform="translate(10.827 13.951)"/>
  </g>
</svg>
