<svg xmlns="http://www.w3.org/2000/svg" viewBox="0 0 72 78.14">
<defs>
  <style>
    .cls-1{fill:rgba(255,255,255,.92)}
    .cls-2{fill:#ffa700}
    .cls-3{filter:url(#Path_255805)}
  </style>
  <filter id="Path_255805" width="72" height="78.14" x="0" y="0" filterUnits="userSpaceOnUse">
    <feOffset dy="3"/>
    <feGaussianBlur result="blur" stdDeviation="3"/>
    <feFlood flood-opacity=".161"/>
    <feComposite in2="blur" operator="in"/>
    <feComposite in="SourceGraphic"/>
  </filter>
</defs>
<g id="Pin" transform="translate(9 6)">
  <g class="cls-3" transform="translate(-9 -6)">
    <path id="Path_255805-2" d="M27 3a24 24 0 0 0-4.72 47.54c1.73.32 4.79 4.57 4.79 4.57s3.29-4.28 4.59-4.56A24 24 0 0 0 27 3m0-3a26.955 26.955 0 0 1 20.83 44.15 27.334 27.334 0 0 1-6.88 5.93 27.613 27.613 0 0 1-8.32 3.34 26.077 26.077 0 0 0-3.18 3.52l-2.46 3.2-2.36-3.27c0-.01-.58-.8-1.34-1.68a9.923 9.923 0 0 0-1.78-1.73 26.554 26.554 0 0 1-15.25-9.11A27.015 27.015 0 0 1 27 0z" class="cls-1" data-name="Path 255805" transform="translate(9 6)"/>
  </g>
  <path id="Path_255804" d="M27 3a23.995 23.995 0 0 1 4.66 47.54c-1.3.28-4.59 4.56-4.59 4.56s-3.06-4.24-4.79-4.57A24 24 0 0 1 27 3z" class="cls-2" data-name="Path 255804"/>
  <g id="AlertBadge" transform="translate(27 27) scale(0.9) translate(-20 -23.67)">
    <path d="M20 6 L35 33 L5 33 Z" fill="#fff" stroke="#fff" stroke-width="9" stroke-linejoin="round"/>
    <path d="M20 6 L35 33 L5 33 Z" fill="#eb4b4c" stroke="#eb4b4c" stroke-width="4" stroke-linejoin="round"/>
    <rect x="18" y="15.5" width="4" height="9" rx="2" fill="#fff"/>
    <circle cx="20" cy="29.5" r="2.3" fill="#fff"/>
  </g>
</g>
</svg>
