<svg xmlns="http://www.w3.org/2000/svg" viewBox="0 0 72 78.14">
<defs>
  <style>
    .cls-1{fill:rgba(255,255,255,.92)}
    .cls-2{fill:#9fd140}
    .cls-3{filter:url(#Path_255805)}
    .cls-4{fill:#fff}
  </style>
  <filter id="Path_255805" width="72" height="78.14" x="0" y="0" filterUnits="userSpaceOnUse">
    <feOffset dy="3"/>
    <feGaussianBlur result="blur" stdDeviation="3"/>
    <feFlood flood-opacity=".161"/>
    <feComposite in2="blur" operator="in"/>
    <feComposite in="SourceGraphic"/>
  </filter>
</defs>
<g id="Pin" transform="translate(9 6)">
  <g class="cls-3" transform="translate(-9 -6)">
    <path id="Path_255805-2" d="M27 3a24 24 0 0 0-4.72 47.54c1.73.32 4.79 4.57 4.79 4.57s3.29-4.28 4.59-4.56A24 24 0 0 0 27 3m0-3a26.955 26.955 0 0 1 20.83 44.15 27.334 27.334 0 0 1-6.88 5.93 27.613 27.613 0 0 1-8.32 3.34 26.077 26.077 0 0 0-3.18 3.52l-2.46 3.2-2.36-3.27c0-.01-.58-.8-1.34-1.68a9.923 9.923 0 0 0-1.78-1.73 26.554 26.554 0 0 1-15.25-9.11A27.015 27.015 0 0 1 27 0z" class="cls-1" data-name="Path 255805" transform="translate(9 6)"/>
  </g>
  <path id="Path_255804" d="M27 3a23.995 23.995 0 0 1 4.66 47.54c-1.3.28-4.59 4.56-4.59 4.56s-3.06-4.24-4.79-4.57A24 24 0 0 1 27 3z" class="cls-2" data-name="Path 255804"/>
  <path id="Path_255773" d="M27.867 12.631l-3.72-3.72A.668.668 0 0 0 23 9.377v2.387H4.333a1.333 1.333 0 1 0 0 2.667H23v2.387a.66.66 0 0 0 1.133.467l3.72-3.72a.656.656 0 0 0 .013-.933z" class="cls-4" data-name="Path 255773" transform="translate(13 15)"/>
</g>
</svg>
